<mxfile host="app.diagrams.net" modified="2022-01-17T09:55:44.164Z" agent="5.0 (Windows NT 10.0; Win64; x64) AppleWebKit/537.36 (KHTML, like Gecko) Chrome/97.0.4692.71 Safari/537.36" etag="wzTroB1LyUrB6g5_hYkg" version="16.2.7" type="github">
  <diagram name="Page-1" id="74e2e168-ea6b-b213-b513-2b3c1d86103e">
    <mxGraphModel dx="2522" dy="762" grid="1" gridSize="10" guides="1" tooltips="1" connect="1" arrows="1" fold="1" page="1" pageScale="1" pageWidth="1100" pageHeight="850" background="none" math="0" shadow="0">
      <root>
        <mxCell id="0" />
        <mxCell id="1" parent="0" />
        <mxCell id="5FDzwrHfISPWhtm09f9s-1" value="站内社区" style="swimlane;childLayout=stackLayout;resizeParent=1;resizeParentMax=0;startSize=20;" parent="1" vertex="1">
          <mxGeometry x="190" y="60" width="550" height="620" as="geometry" />
        </mxCell>
        <mxCell id="5FDzwrHfISPWhtm09f9s-2" value="运营" style="swimlane;startSize=20;" parent="5FDzwrHfISPWhtm09f9s-1" vertex="1">
          <mxGeometry y="20" width="190" height="600" as="geometry" />
        </mxCell>
        <mxCell id="ZMYzjcz4kzVzO9VZxVAW-8" style="edgeStyle=orthogonalEdgeStyle;rounded=0;orthogonalLoop=1;jettySize=auto;html=1;exitX=0.5;exitY=1;exitDx=0;exitDy=0;entryX=0.5;entryY=0;entryDx=0;entryDy=0;strokeColor=#000000;" edge="1" parent="5FDzwrHfISPWhtm09f9s-2" source="ZMYzjcz4kzVzO9VZxVAW-3" target="ZMYzjcz4kzVzO9VZxVAW-5">
          <mxGeometry relative="1" as="geometry" />
        </mxCell>
        <mxCell id="ZMYzjcz4kzVzO9VZxVAW-3" value="" style="ellipse;shape=doubleEllipse;html=1;dashed=0;whitespace=wrap;aspect=fixed;" vertex="1" parent="5FDzwrHfISPWhtm09f9s-2">
          <mxGeometry x="75" y="30" width="30" height="30" as="geometry" />
        </mxCell>
        <mxCell id="ZMYzjcz4kzVzO9VZxVAW-15" value="" style="edgeStyle=orthogonalEdgeStyle;rounded=0;orthogonalLoop=1;jettySize=auto;html=1;strokeColor=#000000;" edge="1" parent="5FDzwrHfISPWhtm09f9s-2" source="ZMYzjcz4kzVzO9VZxVAW-5" target="ZMYzjcz4kzVzO9VZxVAW-9">
          <mxGeometry relative="1" as="geometry" />
        </mxCell>
        <mxCell id="ZMYzjcz4kzVzO9VZxVAW-5" value="搬运内容" style="rounded=1;whiteSpace=wrap;html=1;absoluteArcSize=1;arcSize=14;strokeWidth=2;" vertex="1" parent="5FDzwrHfISPWhtm09f9s-2">
          <mxGeometry x="55" y="80" width="70" height="30" as="geometry" />
        </mxCell>
        <mxCell id="ZMYzjcz4kzVzO9VZxVAW-9" value="确立内容标注规则和排序诉求" style="rounded=1;whiteSpace=wrap;html=1;absoluteArcSize=1;arcSize=14;strokeWidth=2;" vertex="1" parent="5FDzwrHfISPWhtm09f9s-2">
          <mxGeometry x="37.5" y="140" width="105" height="30" as="geometry" />
        </mxCell>
        <mxCell id="ZMYzjcz4kzVzO9VZxVAW-37" value="厂商入驻" style="rounded=1;whiteSpace=wrap;html=1;absoluteArcSize=1;arcSize=14;strokeWidth=2;fontSize=13;" vertex="1" parent="5FDzwrHfISPWhtm09f9s-2">
          <mxGeometry x="40" y="220" width="100" height="40" as="geometry" />
        </mxCell>
        <mxCell id="5FDzwrHfISPWhtm09f9s-3" value="产品" style="swimlane;startSize=20;" parent="5FDzwrHfISPWhtm09f9s-1" vertex="1">
          <mxGeometry x="190" y="20" width="250" height="600" as="geometry" />
        </mxCell>
        <mxCell id="ZMYzjcz4kzVzO9VZxVAW-17" value="" style="edgeStyle=orthogonalEdgeStyle;rounded=0;orthogonalLoop=1;jettySize=auto;html=1;strokeColor=#000000;" edge="1" parent="5FDzwrHfISPWhtm09f9s-3" source="ZMYzjcz4kzVzO9VZxVAW-6" target="ZMYzjcz4kzVzO9VZxVAW-11">
          <mxGeometry relative="1" as="geometry" />
        </mxCell>
        <mxCell id="ZMYzjcz4kzVzO9VZxVAW-6" value="底层后台搭建" style="rounded=1;whiteSpace=wrap;html=1;absoluteArcSize=1;arcSize=14;strokeWidth=2;" vertex="1" parent="5FDzwrHfISPWhtm09f9s-3">
          <mxGeometry x="73.75" y="70" width="75" height="30" as="geometry" />
        </mxCell>
        <mxCell id="ZMYzjcz4kzVzO9VZxVAW-23" value="" style="edgeStyle=orthogonalEdgeStyle;rounded=0;orthogonalLoop=1;jettySize=auto;html=1;strokeColor=#000000;" edge="1" parent="5FDzwrHfISPWhtm09f9s-3" source="ZMYzjcz4kzVzO9VZxVAW-11" target="ZMYzjcz4kzVzO9VZxVAW-22">
          <mxGeometry relative="1" as="geometry" />
        </mxCell>
        <mxCell id="ZMYzjcz4kzVzO9VZxVAW-11" value="确定圈子、list内容策略[1]和映射规则" style="rounded=1;whiteSpace=wrap;html=1;absoluteArcSize=1;arcSize=14;strokeWidth=2;" vertex="1" parent="5FDzwrHfISPWhtm09f9s-3">
          <mxGeometry x="22.5" y="130" width="177.5" height="60" as="geometry" />
        </mxCell>
        <mxCell id="ZMYzjcz4kzVzO9VZxVAW-52" style="edgeStyle=orthogonalEdgeStyle;rounded=0;orthogonalLoop=1;jettySize=auto;html=1;exitX=0.5;exitY=1;exitDx=0;exitDy=0;entryX=0.5;entryY=0;entryDx=0;entryDy=0;fontSize=13;fontColor=#82B366;strokeColor=#000000;" edge="1" parent="5FDzwrHfISPWhtm09f9s-3" source="ZMYzjcz4kzVzO9VZxVAW-22" target="ZMYzjcz4kzVzO9VZxVAW-51">
          <mxGeometry relative="1" as="geometry" />
        </mxCell>
        <mxCell id="ZMYzjcz4kzVzO9VZxVAW-64" style="edgeStyle=orthogonalEdgeStyle;rounded=0;orthogonalLoop=1;jettySize=auto;html=1;exitX=0.5;exitY=1;exitDx=0;exitDy=0;entryX=0.5;entryY=0;entryDx=0;entryDy=0;fontSize=13;fontColor=#FF3333;strokeColor=#000000;" edge="1" parent="5FDzwrHfISPWhtm09f9s-3" source="ZMYzjcz4kzVzO9VZxVAW-22" target="ZMYzjcz4kzVzO9VZxVAW-42">
          <mxGeometry relative="1" as="geometry" />
        </mxCell>
        <mxCell id="ZMYzjcz4kzVzO9VZxVAW-22" value="个人页搭建" style="whiteSpace=wrap;html=1;rounded=1;arcSize=14;strokeWidth=2;" vertex="1" parent="5FDzwrHfISPWhtm09f9s-3">
          <mxGeometry x="71.88" y="220" width="78.75" height="40" as="geometry" />
        </mxCell>
        <mxCell id="ZMYzjcz4kzVzO9VZxVAW-42" value="广场升级迭代：形态&amp;amp;分发策略" style="whiteSpace=wrap;html=1;rounded=1;arcSize=14;strokeWidth=2;" vertex="1" parent="5FDzwrHfISPWhtm09f9s-3">
          <mxGeometry x="101.25" y="365" width="120" height="40" as="geometry" />
        </mxCell>
        <mxCell id="ZMYzjcz4kzVzO9VZxVAW-51" value="外部链路渗透：搜索、直播间" style="whiteSpace=wrap;html=1;rounded=1;arcSize=14;strokeWidth=2;" vertex="1" parent="5FDzwrHfISPWhtm09f9s-3">
          <mxGeometry x="30" y="460" width="110" height="40" as="geometry" />
        </mxCell>
        <mxCell id="5FDzwrHfISPWhtm09f9s-4" value="算法" style="swimlane;startSize=20;" parent="5FDzwrHfISPWhtm09f9s-1" vertex="1">
          <mxGeometry x="440" y="20" width="110" height="600" as="geometry" />
        </mxCell>
        <mxCell id="ZMYzjcz4kzVzO9VZxVAW-10" value="建立热度排序策略[2]" style="rounded=1;whiteSpace=wrap;html=1;absoluteArcSize=1;arcSize=14;strokeWidth=2;" vertex="1" parent="5FDzwrHfISPWhtm09f9s-4">
          <mxGeometry x="30" y="145" width="70" height="30" as="geometry" />
        </mxCell>
        <mxCell id="ZMYzjcz4kzVzO9VZxVAW-24" value="建立图文混排分发策略" style="rounded=1;whiteSpace=wrap;html=1;absoluteArcSize=1;arcSize=14;strokeWidth=2;" vertex="1" parent="5FDzwrHfISPWhtm09f9s-4">
          <mxGeometry x="20" y="360" width="70" height="30" as="geometry" />
        </mxCell>
        <mxCell id="ZMYzjcz4kzVzO9VZxVAW-25" value="完善图文投放策略" style="rounded=1;whiteSpace=wrap;html=1;absoluteArcSize=1;arcSize=14;strokeWidth=2;" vertex="1" parent="5FDzwrHfISPWhtm09f9s-4">
          <mxGeometry x="20" y="405" width="70" height="30" as="geometry" />
        </mxCell>
        <mxCell id="ZMYzjcz4kzVzO9VZxVAW-12" style="edgeStyle=orthogonalEdgeStyle;rounded=0;orthogonalLoop=1;jettySize=auto;html=1;exitX=1;exitY=0.25;exitDx=0;exitDy=0;entryX=0;entryY=0.5;entryDx=0;entryDy=0;strokeColor=#000000;" edge="1" parent="5FDzwrHfISPWhtm09f9s-1" source="ZMYzjcz4kzVzO9VZxVAW-9" target="ZMYzjcz4kzVzO9VZxVAW-11">
          <mxGeometry relative="1" as="geometry" />
        </mxCell>
        <mxCell id="ZMYzjcz4kzVzO9VZxVAW-13" style="edgeStyle=orthogonalEdgeStyle;rounded=0;orthogonalLoop=1;jettySize=auto;html=1;exitX=0;exitY=0.5;exitDx=0;exitDy=0;entryX=1;entryY=0.5;entryDx=0;entryDy=0;strokeColor=#000000;" edge="1" parent="5FDzwrHfISPWhtm09f9s-1" source="ZMYzjcz4kzVzO9VZxVAW-10" target="ZMYzjcz4kzVzO9VZxVAW-11">
          <mxGeometry relative="1" as="geometry" />
        </mxCell>
        <mxCell id="ZMYzjcz4kzVzO9VZxVAW-39" style="edgeStyle=orthogonalEdgeStyle;rounded=0;orthogonalLoop=1;jettySize=auto;html=1;exitX=0;exitY=0.5;exitDx=0;exitDy=0;fontSize=13;strokeColor=#000000;entryX=1;entryY=0.5;entryDx=0;entryDy=0;" edge="1" parent="5FDzwrHfISPWhtm09f9s-1" source="ZMYzjcz4kzVzO9VZxVAW-24" target="ZMYzjcz4kzVzO9VZxVAW-42">
          <mxGeometry relative="1" as="geometry">
            <mxPoint x="342.5" y="405" as="targetPoint" />
          </mxGeometry>
        </mxCell>
        <mxCell id="ZMYzjcz4kzVzO9VZxVAW-40" style="edgeStyle=orthogonalEdgeStyle;rounded=0;orthogonalLoop=1;jettySize=auto;html=1;exitX=0;exitY=0.5;exitDx=0;exitDy=0;fontSize=13;strokeColor=#000000;entryX=1;entryY=0.5;entryDx=0;entryDy=0;" edge="1" parent="5FDzwrHfISPWhtm09f9s-1" source="ZMYzjcz4kzVzO9VZxVAW-25" target="ZMYzjcz4kzVzO9VZxVAW-42">
          <mxGeometry relative="1" as="geometry">
            <mxPoint x="342.5" y="405" as="targetPoint" />
          </mxGeometry>
        </mxCell>
        <mxCell id="ZMYzjcz4kzVzO9VZxVAW-59" style="edgeStyle=orthogonalEdgeStyle;rounded=0;orthogonalLoop=1;jettySize=auto;html=1;exitX=1;exitY=0.5;exitDx=0;exitDy=0;entryX=0;entryY=0.5;entryDx=0;entryDy=0;fontSize=13;fontColor=#FF3333;strokeColor=#000000;" edge="1" parent="5FDzwrHfISPWhtm09f9s-1" source="ZMYzjcz4kzVzO9VZxVAW-37" target="ZMYzjcz4kzVzO9VZxVAW-22">
          <mxGeometry relative="1" as="geometry" />
        </mxCell>
        <mxCell id="ZMYzjcz4kzVzO9VZxVAW-21" value="&lt;span style=&quot;font-size: 13px;&quot;&gt;[1] 内容策略包括自然排序、人工干预、筛选入库规则、用户发布内容自动打标规则。&lt;br style=&quot;font-size: 13px;&quot;&gt;[2] 热度排序策略通过计算动态得分的方式完成，可建立多套计算策略，即一个动态有多种得分，复用到话题和圈子。&lt;br style=&quot;font-size: 13px;&quot;&gt;&lt;/span&gt;" style="rounded=0;whiteSpace=wrap;html=1;align=left;verticalAlign=top;fontSize=13;spacingTop=2;spacing=2;" vertex="1" parent="1">
          <mxGeometry x="930" y="50" width="260" height="250" as="geometry" />
        </mxCell>
        <mxCell id="ZMYzjcz4kzVzO9VZxVAW-30" value="" style="edgeStyle=orthogonalEdgeStyle;rounded=0;orthogonalLoop=1;jettySize=auto;html=1;fontSize=13;strokeColor=#82B366;entryX=0;entryY=0.5;entryDx=0;entryDy=0;" edge="1" parent="1" source="ZMYzjcz4kzVzO9VZxVAW-28" target="ZMYzjcz4kzVzO9VZxVAW-5">
          <mxGeometry relative="1" as="geometry">
            <mxPoint x="150" y="173" as="targetPoint" />
            <Array as="points">
              <mxPoint x="110" y="175" />
            </Array>
          </mxGeometry>
        </mxCell>
        <mxCell id="ZMYzjcz4kzVzO9VZxVAW-28" value="图文自动爬取、互动数据爬取" style="rounded=1;whiteSpace=wrap;html=1;absoluteArcSize=1;arcSize=14;strokeWidth=2;fontSize=13;" vertex="1" parent="1">
          <mxGeometry x="60" y="200" width="100" height="50" as="geometry" />
        </mxCell>
        <mxCell id="ZMYzjcz4kzVzO9VZxVAW-31" style="edgeStyle=orthogonalEdgeStyle;rounded=0;orthogonalLoop=1;jettySize=auto;html=1;exitX=1;exitY=0.5;exitDx=0;exitDy=0;fontSize=13;strokeColor=#82B366;" edge="1" parent="1" source="ZMYzjcz4kzVzO9VZxVAW-29">
          <mxGeometry relative="1" as="geometry">
            <mxPoint x="180" y="180" as="targetPoint" />
            <Array as="points">
              <mxPoint x="180" y="305" />
            </Array>
          </mxGeometry>
        </mxCell>
        <mxCell id="ZMYzjcz4kzVzO9VZxVAW-29" value="图文fake互动" style="rounded=1;whiteSpace=wrap;html=1;absoluteArcSize=1;arcSize=14;strokeWidth=2;fontSize=13;" vertex="1" parent="1">
          <mxGeometry x="60" y="280" width="100" height="50" as="geometry" />
        </mxCell>
        <mxCell id="ZMYzjcz4kzVzO9VZxVAW-33" style="edgeStyle=orthogonalEdgeStyle;rounded=0;orthogonalLoop=1;jettySize=auto;html=1;exitX=0.5;exitY=1;exitDx=0;exitDy=0;fontSize=13;strokeColor=#82B366;entryX=0;entryY=0.5;entryDx=0;entryDy=0;" edge="1" parent="1" source="ZMYzjcz4kzVzO9VZxVAW-32" target="ZMYzjcz4kzVzO9VZxVAW-5">
          <mxGeometry relative="1" as="geometry">
            <mxPoint x="150" y="180" as="targetPoint" />
            <Array as="points">
              <mxPoint x="110" y="175" />
            </Array>
          </mxGeometry>
        </mxCell>
        <mxCell id="ZMYzjcz4kzVzO9VZxVAW-32" value="外团水军搭建" style="rounded=1;whiteSpace=wrap;html=1;absoluteArcSize=1;arcSize=14;strokeWidth=2;fontSize=13;" vertex="1" parent="1">
          <mxGeometry x="60" y="110" width="100" height="30" as="geometry" />
        </mxCell>
        <mxCell id="ZMYzjcz4kzVzO9VZxVAW-49" style="edgeStyle=orthogonalEdgeStyle;rounded=0;orthogonalLoop=1;jettySize=auto;html=1;exitX=0.5;exitY=1;exitDx=0;exitDy=0;exitPerimeter=0;entryX=0;entryY=0.75;entryDx=0;entryDy=0;fontSize=13;fontColor=#82B366;strokeColor=#82B366;" edge="1" parent="1" source="ZMYzjcz4kzVzO9VZxVAW-43" target="ZMYzjcz4kzVzO9VZxVAW-48">
          <mxGeometry relative="1" as="geometry" />
        </mxCell>
        <mxCell id="ZMYzjcz4kzVzO9VZxVAW-43" value="标注系统" style="strokeWidth=2;html=1;shape=mxgraph.flowchart.database;whiteSpace=wrap;fontColor=#82B366;strokeColor=#82B366;" vertex="1" parent="1">
          <mxGeometry x="-60" y="345" width="80" height="50" as="geometry" />
        </mxCell>
        <mxCell id="ZMYzjcz4kzVzO9VZxVAW-44" style="edgeStyle=orthogonalEdgeStyle;rounded=0;orthogonalLoop=1;jettySize=auto;html=1;exitX=0;exitY=0.25;exitDx=0;exitDy=0;entryX=1;entryY=0.5;entryDx=0;entryDy=0;entryPerimeter=0;fontSize=13;fontColor=#82B366;strokeColor=#82B366;" edge="1" parent="1" source="ZMYzjcz4kzVzO9VZxVAW-9" target="ZMYzjcz4kzVzO9VZxVAW-43">
          <mxGeometry relative="1" as="geometry">
            <Array as="points">
              <mxPoint x="200" y="228" />
              <mxPoint x="200" y="370" />
            </Array>
          </mxGeometry>
        </mxCell>
        <mxCell id="ZMYzjcz4kzVzO9VZxVAW-46" style="edgeStyle=orthogonalEdgeStyle;rounded=0;orthogonalLoop=1;jettySize=auto;html=1;exitX=1;exitY=0.5;exitDx=0;exitDy=0;exitPerimeter=0;entryX=0;entryY=0.5;entryDx=0;entryDy=0;fontSize=13;fontColor=#82B366;strokeColor=#82B366;" edge="1" parent="1" source="ZMYzjcz4kzVzO9VZxVAW-45" target="ZMYzjcz4kzVzO9VZxVAW-28">
          <mxGeometry relative="1" as="geometry" />
        </mxCell>
        <mxCell id="ZMYzjcz4kzVzO9VZxVAW-47" style="edgeStyle=orthogonalEdgeStyle;rounded=0;orthogonalLoop=1;jettySize=auto;html=1;exitX=1;exitY=0.5;exitDx=0;exitDy=0;exitPerimeter=0;entryX=0;entryY=0.5;entryDx=0;entryDy=0;fontSize=13;fontColor=#82B366;strokeColor=#82B366;" edge="1" parent="1" source="ZMYzjcz4kzVzO9VZxVAW-45" target="ZMYzjcz4kzVzO9VZxVAW-29">
          <mxGeometry relative="1" as="geometry">
            <Array as="points">
              <mxPoint x="40" y="255" />
              <mxPoint x="40" y="305" />
            </Array>
          </mxGeometry>
        </mxCell>
        <mxCell id="ZMYzjcz4kzVzO9VZxVAW-45" value="爬虫系统" style="strokeWidth=2;html=1;shape=mxgraph.flowchart.database;whiteSpace=wrap;fontColor=#82B366;strokeColor=#82B366;" vertex="1" parent="1">
          <mxGeometry x="-60" y="230" width="80" height="50" as="geometry" />
        </mxCell>
        <mxCell id="ZMYzjcz4kzVzO9VZxVAW-50" style="edgeStyle=orthogonalEdgeStyle;rounded=0;orthogonalLoop=1;jettySize=auto;html=1;exitX=0.5;exitY=1;exitDx=0;exitDy=0;entryX=1;entryY=0.25;entryDx=0;entryDy=0;fontSize=13;fontColor=#82B366;strokeColor=#82B366;" edge="1" parent="1" source="ZMYzjcz4kzVzO9VZxVAW-48" target="ZMYzjcz4kzVzO9VZxVAW-24">
          <mxGeometry relative="1" as="geometry">
            <Array as="points">
              <mxPoint x="110" y="700" />
              <mxPoint x="770" y="700" />
              <mxPoint x="770" y="448" />
            </Array>
          </mxGeometry>
        </mxCell>
        <mxCell id="ZMYzjcz4kzVzO9VZxVAW-48" value="构建图文标签、品类体系" style="rounded=1;whiteSpace=wrap;html=1;absoluteArcSize=1;arcSize=14;strokeWidth=2;fontSize=13;" vertex="1" parent="1">
          <mxGeometry x="60" y="425" width="100" height="50" as="geometry" />
        </mxCell>
      </root>
    </mxGraphModel>
  </diagram>
</mxfile>
